<mxfile host="app.diagrams.net" agent="Mozilla/5.0 (Windows NT 10.0; Win64; x64) AppleWebKit/537.36 (KHTML, like Gecko) Chrome/139.0.0.0 Safari/537.36 Edg/139.0.0.0" version="28.1.1">
  <diagram name="Page-1" id="0783ab3e-0a74-02c8-0abd-f7b4e66b4bec">
    <mxGraphModel dx="1722" dy="1514" grid="1" gridSize="10" guides="1" tooltips="1" connect="1" arrows="1" fold="1" page="1" pageScale="1" pageWidth="850" pageHeight="1100" background="none" math="0" shadow="0">
      <root>
        <mxCell id="0" />
        <mxCell id="1" parent="0" />
        <mxCell id="7wISNx735t2P9GYu37Is-263" value="Pool" style="swimlane;html=1;childLayout=stackLayout;startSize=20;rounded=0;shadow=0;comic=0;labelBackgroundColor=none;strokeWidth=1;fontFamily=Verdana;fontSize=12;align=center;" vertex="1" parent="1">
          <mxGeometry x="-250" y="-330" width="750" height="990" as="geometry" />
        </mxCell>
        <mxCell id="7wISNx735t2P9GYu37Is-264" value="Lane 1" style="swimlane;html=1;startSize=20;" vertex="1" parent="7wISNx735t2P9GYu37Is-263">
          <mxGeometry y="20" width="250" height="970" as="geometry" />
        </mxCell>
        <mxCell id="7wISNx735t2P9GYu37Is-274" value="Lane 2" style="swimlane;html=1;startSize=20;" vertex="1" parent="7wISNx735t2P9GYu37Is-263">
          <mxGeometry x="250" y="20" width="250" height="970" as="geometry" />
        </mxCell>
        <mxCell id="7wISNx735t2P9GYu37Is-290" value="Lane 3" style="swimlane;html=1;startSize=20;" vertex="1" parent="7wISNx735t2P9GYu37Is-263">
          <mxGeometry x="500" y="20" width="250" height="970" as="geometry" />
        </mxCell>
      </root>
    </mxGraphModel>
  </diagram>
</mxfile>
